<?xml version="1.0" encoding="UTF-8"?>
<svg xmlns="http://www.w3.org/2000/svg" width="128" height="128" viewBox="0 0 128 128">
  <defs>
    <linearGradient id="bg" x1="0%" y1="0%" x2="100%" y2="100%">
      <stop offset="0%" stop-color="#16213e"/>
      <stop offset="100%" stop-color="#0f0f23"/>
    </linearGradient>
  </defs>
  <rect width="128" height="128" rx="19.2" fill="url(#bg)"/>
  <path d="M64,64 L120.32,64 A56.32,56.32 0 0,1 103.82425391642636,103.82425391642636 Z" fill="hsl(0, 80%, 60%)" opacity="0.85"/>
  <path d="M64,64 L103.82425391642636,103.82425391642636 A56.32,56.32 0 0,1 64,120.32 Z" fill="hsl(45, 80%, 60%)" opacity="0.85"/>
  <path d="M64,64 L64,120.32 A56.32,56.32 0 0,1 24.17574608357365,103.82425391642636 Z" fill="hsl(90, 80%, 60%)" opacity="0.85"/>
  <path d="M64,64 L24.17574608357365,103.82425391642636 A56.32,56.32 0 0,1 7.68,64 Z" fill="hsl(135, 80%, 60%)" opacity="0.85"/>
  <path d="M64,64 L7.68,64 A56.32,56.32 0 0,1 24.175746083573635,24.17574608357365 Z" fill="hsl(180, 80%, 60%)" opacity="0.85"/>
  <path d="M64,64 L24.175746083573635,24.17574608357365 A56.32,56.32 0 0,1 63.99999999999999,7.68 Z" fill="hsl(225, 80%, 60%)" opacity="0.85"/>
  <path d="M64,64 L63.99999999999999,7.68 A56.32,56.32 0 0,1 103.82425391642636,24.175746083573635 Z" fill="hsl(270, 80%, 60%)" opacity="0.85"/>
  <path d="M64,64 L103.82425391642636,24.175746083573635 A56.32,56.32 0 0,1 120.32,63.999999999999986 Z" fill="hsl(315, 80%, 60%)" opacity="0.85"/>
  <circle cx="64" cy="64" r="40.96" fill="#e94560" opacity="0.9"/>
  <circle cx="64" cy="64" r="58.32" fill="none" stroke="rgba(233,69,96,0.3)" stroke-width="2"/>
</svg>