<?xml version="1.0" encoding="UTF-8"?>
<svg xmlns="http://www.w3.org/2000/svg" width="192" height="192" viewBox="0 0 192 192">
  <defs>
    <linearGradient id="bg" x1="0%" y1="0%" x2="100%" y2="100%">
      <stop offset="0%" stop-color="#16213e"/>
      <stop offset="100%" stop-color="#0f0f23"/>
    </linearGradient>
  </defs>
  <rect width="192" height="192" rx="28.799999999999997" fill="url(#bg)"/>
  <path d="M96,96 L180.48000000000002,96 A84.48,84.48 0 0,1 155.73638087463954,155.73638087463954 Z" fill="hsl(0, 80%, 60%)" opacity="0.85"/>
  <path d="M96,96 L155.73638087463954,155.73638087463954 A84.48,84.48 0 0,1 96,180.48000000000002 Z" fill="hsl(45, 80%, 60%)" opacity="0.85"/>
  <path d="M96,96 L96,180.48000000000002 A84.48,84.48 0 0,1 36.26361912536047,155.73638087463954 Z" fill="hsl(90, 80%, 60%)" opacity="0.85"/>
  <path d="M96,96 L36.26361912536047,155.73638087463954 A84.48,84.48 0 0,1 11.519999999999996,96.00000000000001 Z" fill="hsl(135, 80%, 60%)" opacity="0.85"/>
  <path d="M96,96 L11.519999999999996,96.00000000000001 A84.48,84.48 0 0,1 36.26361912536045,36.26361912536047 Z" fill="hsl(180, 80%, 60%)" opacity="0.85"/>
  <path d="M96,96 L36.26361912536045,36.26361912536047 A84.48,84.48 0 0,1 95.99999999999999,11.519999999999996 Z" fill="hsl(225, 80%, 60%)" opacity="0.85"/>
  <path d="M96,96 L95.99999999999999,11.519999999999996 A84.48,84.48 0 0,1 155.7363808746395,36.26361912536045 Z" fill="hsl(270, 80%, 60%)" opacity="0.85"/>
  <path d="M96,96 L155.7363808746395,36.26361912536045 A84.48,84.48 0 0,1 180.48000000000002,95.99999999999999 Z" fill="hsl(315, 80%, 60%)" opacity="0.85"/>
  <circle cx="96" cy="96" r="61.44" fill="#e94560" opacity="0.9"/>
  <circle cx="96" cy="96" r="86.48" fill="none" stroke="rgba(233,69,96,0.3)" stroke-width="2"/>
</svg>