<?xml version="1.0" encoding="UTF-8"?>
<svg xmlns="http://www.w3.org/2000/svg" width="512" height="512" viewBox="0 0 512 512">
  <defs>
    <linearGradient id="bg" x1="0%" y1="0%" x2="100%" y2="100%">
      <stop offset="0%" stop-color="#16213e"/>
      <stop offset="100%" stop-color="#0f0f23"/>
    </linearGradient>
  </defs>
  <rect width="512" height="512" rx="76.8" fill="url(#bg)"/>
  <path d="M256,256 L481.28,256 A225.28,225.28 0 0,1 415.29701566570543,415.29701566570543 Z" fill="hsl(0, 80%, 60%)" opacity="0.85"/>
  <path d="M256,256 L415.29701566570543,415.29701566570543 A225.28,225.28 0 0,1 256,481.28 Z" fill="hsl(45, 80%, 60%)" opacity="0.85"/>
  <path d="M256,256 L256,481.28 A225.28,225.28 0 0,1 96.7029843342946,415.29701566570543 Z" fill="hsl(90, 80%, 60%)" opacity="0.85"/>
  <path d="M256,256 L96.7029843342946,415.29701566570543 A225.28,225.28 0 0,1 30.72,256 Z" fill="hsl(135, 80%, 60%)" opacity="0.85"/>
  <path d="M256,256 L30.72,256 A225.28,225.28 0 0,1 96.70298433429454,96.7029843342946 Z" fill="hsl(180, 80%, 60%)" opacity="0.85"/>
  <path d="M256,256 L96.70298433429454,96.7029843342946 A225.28,225.28 0 0,1 255.99999999999997,30.72 Z" fill="hsl(225, 80%, 60%)" opacity="0.85"/>
  <path d="M256,256 L255.99999999999997,30.72 A225.28,225.28 0 0,1 415.29701566570543,96.70298433429454 Z" fill="hsl(270, 80%, 60%)" opacity="0.85"/>
  <path d="M256,256 L415.29701566570543,96.70298433429454 A225.28,225.28 0 0,1 481.28,255.99999999999994 Z" fill="hsl(315, 80%, 60%)" opacity="0.85"/>
  <circle cx="256" cy="256" r="163.84" fill="#e94560" opacity="0.9"/>
  <circle cx="256" cy="256" r="227.28" fill="none" stroke="rgba(233,69,96,0.3)" stroke-width="2"/>
</svg>