<?xml version="1.0" encoding="UTF-8"?>
<svg xmlns="http://www.w3.org/2000/svg" width="144" height="144" viewBox="0 0 144 144">
  <defs>
    <linearGradient id="bg" x1="0%" y1="0%" x2="100%" y2="100%">
      <stop offset="0%" stop-color="#16213e"/>
      <stop offset="100%" stop-color="#0f0f23"/>
    </linearGradient>
  </defs>
  <rect width="144" height="144" rx="21.599999999999998" fill="url(#bg)"/>
  <path d="M72,72 L135.36,72 A63.36,63.36 0 0,1 116.80228565597966,116.80228565597965 Z" fill="hsl(0, 80%, 60%)" opacity="0.85"/>
  <path d="M72,72 L116.80228565597966,116.80228565597965 A63.36,63.36 0 0,1 72,135.36 Z" fill="hsl(45, 80%, 60%)" opacity="0.85"/>
  <path d="M72,72 L72,135.36 A63.36,63.36 0 0,1 27.197714344020355,116.80228565597966 Z" fill="hsl(90, 80%, 60%)" opacity="0.85"/>
  <path d="M72,72 L27.197714344020355,116.80228565597966 A63.36,63.36 0 0,1 8.64,72.00000000000001 Z" fill="hsl(135, 80%, 60%)" opacity="0.85"/>
  <path d="M72,72 L8.64,72.00000000000001 A63.36,63.36 0 0,1 27.19771434402034,27.197714344020355 Z" fill="hsl(180, 80%, 60%)" opacity="0.85"/>
  <path d="M72,72 L27.19771434402034,27.197714344020355 A63.36,63.36 0 0,1 71.99999999999999,8.64 Z" fill="hsl(225, 80%, 60%)" opacity="0.85"/>
  <path d="M72,72 L71.99999999999999,8.64 A63.36,63.36 0 0,1 116.80228565597963,27.19771434402034 Z" fill="hsl(270, 80%, 60%)" opacity="0.85"/>
  <path d="M72,72 L116.80228565597963,27.19771434402034 A63.36,63.36 0 0,1 135.36,71.99999999999999 Z" fill="hsl(315, 80%, 60%)" opacity="0.85"/>
  <circle cx="72" cy="72" r="46.08" fill="#e94560" opacity="0.9"/>
  <circle cx="72" cy="72" r="65.36" fill="none" stroke="rgba(233,69,96,0.3)" stroke-width="2"/>
</svg>