<?xml version="1.0" encoding="UTF-8"?>
<svg xmlns="http://www.w3.org/2000/svg" width="384" height="384" viewBox="0 0 384 384">
  <defs>
    <linearGradient id="bg" x1="0%" y1="0%" x2="100%" y2="100%">
      <stop offset="0%" stop-color="#16213e"/>
      <stop offset="100%" stop-color="#0f0f23"/>
    </linearGradient>
  </defs>
  <rect width="384" height="384" rx="57.599999999999994" fill="url(#bg)"/>
  <path d="M192,192 L360.96000000000004,192 A168.96,168.96 0 0,1 311.4727617492791,311.4727617492791 Z" fill="hsl(0, 80%, 60%)" opacity="0.85"/>
  <path d="M192,192 L311.4727617492791,311.4727617492791 A168.96,168.96 0 0,1 192,360.96000000000004 Z" fill="hsl(45, 80%, 60%)" opacity="0.85"/>
  <path d="M192,192 L192,360.96000000000004 A168.96,168.96 0 0,1 72.52723825072094,311.4727617492791 Z" fill="hsl(90, 80%, 60%)" opacity="0.85"/>
  <path d="M192,192 L72.52723825072094,311.4727617492791 A168.96,168.96 0 0,1 23.039999999999992,192.00000000000003 Z" fill="hsl(135, 80%, 60%)" opacity="0.85"/>
  <path d="M192,192 L23.039999999999992,192.00000000000003 A168.96,168.96 0 0,1 72.5272382507209,72.52723825072094 Z" fill="hsl(180, 80%, 60%)" opacity="0.85"/>
  <path d="M192,192 L72.5272382507209,72.52723825072094 A168.96,168.96 0 0,1 191.99999999999997,23.039999999999992 Z" fill="hsl(225, 80%, 60%)" opacity="0.85"/>
  <path d="M192,192 L191.99999999999997,23.039999999999992 A168.96,168.96 0 0,1 311.472761749279,72.5272382507209 Z" fill="hsl(270, 80%, 60%)" opacity="0.85"/>
  <path d="M192,192 L311.472761749279,72.5272382507209 A168.96,168.96 0 0,1 360.96000000000004,191.99999999999997 Z" fill="hsl(315, 80%, 60%)" opacity="0.85"/>
  <circle cx="192" cy="192" r="122.88" fill="#e94560" opacity="0.9"/>
  <circle cx="192" cy="192" r="170.96" fill="none" stroke="rgba(233,69,96,0.3)" stroke-width="2"/>
</svg>