<?xml version="1.0" encoding="UTF-8"?>
<svg xmlns="http://www.w3.org/2000/svg" width="96" height="96" viewBox="0 0 96 96">
  <defs>
    <linearGradient id="bg" x1="0%" y1="0%" x2="100%" y2="100%">
      <stop offset="0%" stop-color="#16213e"/>
      <stop offset="100%" stop-color="#0f0f23"/>
    </linearGradient>
  </defs>
  <rect width="96" height="96" rx="14.399999999999999" fill="url(#bg)"/>
  <path d="M48,48 L90.24000000000001,48 A42.24,42.24 0 0,1 77.86819043731977,77.86819043731977 Z" fill="hsl(0, 80%, 60%)" opacity="0.85"/>
  <path d="M48,48 L77.86819043731977,77.86819043731977 A42.24,42.24 0 0,1 48,90.24000000000001 Z" fill="hsl(45, 80%, 60%)" opacity="0.85"/>
  <path d="M48,48 L48,90.24000000000001 A42.24,42.24 0 0,1 18.131809562680235,77.86819043731977 Z" fill="hsl(90, 80%, 60%)" opacity="0.85"/>
  <path d="M48,48 L18.131809562680235,77.86819043731977 A42.24,42.24 0 0,1 5.759999999999998,48.00000000000001 Z" fill="hsl(135, 80%, 60%)" opacity="0.85"/>
  <path d="M48,48 L5.759999999999998,48.00000000000001 A42.24,42.24 0 0,1 18.131809562680225,18.131809562680235 Z" fill="hsl(180, 80%, 60%)" opacity="0.85"/>
  <path d="M48,48 L18.131809562680225,18.131809562680235 A42.24,42.24 0 0,1 47.99999999999999,5.759999999999998 Z" fill="hsl(225, 80%, 60%)" opacity="0.85"/>
  <path d="M48,48 L47.99999999999999,5.759999999999998 A42.24,42.24 0 0,1 77.86819043731975,18.131809562680225 Z" fill="hsl(270, 80%, 60%)" opacity="0.85"/>
  <path d="M48,48 L77.86819043731975,18.131809562680225 A42.24,42.24 0 0,1 90.24000000000001,47.99999999999999 Z" fill="hsl(315, 80%, 60%)" opacity="0.85"/>
  <circle cx="48" cy="48" r="30.72" fill="#e94560" opacity="0.9"/>
  <circle cx="48" cy="48" r="44.24" fill="none" stroke="rgba(233,69,96,0.3)" stroke-width="2"/>
</svg>