<?xml version="1.0" encoding="UTF-8"?>
<svg xmlns="http://www.w3.org/2000/svg" width="72" height="72" viewBox="0 0 72 72">
  <defs>
    <linearGradient id="bg" x1="0%" y1="0%" x2="100%" y2="100%">
      <stop offset="0%" stop-color="#16213e"/>
      <stop offset="100%" stop-color="#0f0f23"/>
    </linearGradient>
  </defs>
  <rect width="72" height="72" rx="10.799999999999999" fill="url(#bg)"/>
  <path d="M36,36 L67.68,36 A31.68,31.68 0 0,1 58.40114282798983,58.40114282798982 Z" fill="hsl(0, 80%, 60%)" opacity="0.85"/>
  <path d="M36,36 L58.40114282798983,58.40114282798982 A31.68,31.68 0 0,1 36,67.68 Z" fill="hsl(45, 80%, 60%)" opacity="0.85"/>
  <path d="M36,36 L36,67.68 A31.68,31.68 0 0,1 13.598857172010177,58.40114282798983 Z" fill="hsl(90, 80%, 60%)" opacity="0.85"/>
  <path d="M36,36 L13.598857172010177,58.40114282798983 A31.68,31.68 0 0,1 4.32,36.00000000000001 Z" fill="hsl(135, 80%, 60%)" opacity="0.85"/>
  <path d="M36,36 L4.32,36.00000000000001 A31.68,31.68 0 0,1 13.59885717201017,13.598857172010177 Z" fill="hsl(180, 80%, 60%)" opacity="0.85"/>
  <path d="M36,36 L13.59885717201017,13.598857172010177 A31.68,31.68 0 0,1 35.99999999999999,4.32 Z" fill="hsl(225, 80%, 60%)" opacity="0.85"/>
  <path d="M36,36 L35.99999999999999,4.32 A31.68,31.68 0 0,1 58.401142827989815,13.59885717201017 Z" fill="hsl(270, 80%, 60%)" opacity="0.85"/>
  <path d="M36,36 L58.401142827989815,13.59885717201017 A31.68,31.68 0 0,1 67.68,35.99999999999999 Z" fill="hsl(315, 80%, 60%)" opacity="0.85"/>
  <circle cx="36" cy="36" r="23.04" fill="#e94560" opacity="0.9"/>
  <circle cx="36" cy="36" r="33.68" fill="none" stroke="rgba(233,69,96,0.3)" stroke-width="2"/>
</svg>