<?xml version="1.0" encoding="UTF-8"?>
<svg xmlns="http://www.w3.org/2000/svg" width="152" height="152" viewBox="0 0 152 152">
  <defs>
    <linearGradient id="bg" x1="0%" y1="0%" x2="100%" y2="100%">
      <stop offset="0%" stop-color="#16213e"/>
      <stop offset="100%" stop-color="#0f0f23"/>
    </linearGradient>
  </defs>
  <rect width="152" height="152" rx="22.8" fill="url(#bg)"/>
  <path d="M76,76 L142.88,76 A66.88,66.88 0 0,1 123.2913015257563,123.2913015257563 Z" fill="hsl(0, 80%, 60%)" opacity="0.85"/>
  <path d="M76,76 L123.2913015257563,123.2913015257563 A66.88,66.88 0 0,1 76,142.88 Z" fill="hsl(45, 80%, 60%)" opacity="0.85"/>
  <path d="M76,76 L76,142.88 A66.88,66.88 0 0,1 28.70869847424371,123.2913015257563 Z" fill="hsl(90, 80%, 60%)" opacity="0.85"/>
  <path d="M76,76 L28.70869847424371,123.2913015257563 A66.88,66.88 0 0,1 9.120000000000005,76.00000000000001 Z" fill="hsl(135, 80%, 60%)" opacity="0.85"/>
  <path d="M76,76 L9.120000000000005,76.00000000000001 A66.88,66.88 0 0,1 28.708698474243697,28.70869847424371 Z" fill="hsl(180, 80%, 60%)" opacity="0.85"/>
  <path d="M76,76 L28.708698474243697,28.70869847424371 A66.88,66.88 0 0,1 75.99999999999999,9.120000000000005 Z" fill="hsl(225, 80%, 60%)" opacity="0.85"/>
  <path d="M76,76 L75.99999999999999,9.120000000000005 A66.88,66.88 0 0,1 123.29130152575628,28.708698474243697 Z" fill="hsl(270, 80%, 60%)" opacity="0.85"/>
  <path d="M76,76 L123.29130152575628,28.708698474243697 A66.88,66.88 0 0,1 142.88,75.99999999999999 Z" fill="hsl(315, 80%, 60%)" opacity="0.85"/>
  <circle cx="76" cy="76" r="48.64" fill="#e94560" opacity="0.9"/>
  <circle cx="76" cy="76" r="68.88" fill="none" stroke="rgba(233,69,96,0.3)" stroke-width="2"/>
</svg>