<?xml version="1.0" encoding="UTF-8"?>
<svg xmlns="http://www.w3.org/2000/svg" width="32" height="32" viewBox="0 0 32 32">
  <defs>
    <linearGradient id="bg" x1="0%" y1="0%" x2="100%" y2="100%">
      <stop offset="0%" stop-color="#16213e"/>
      <stop offset="100%" stop-color="#0f0f23"/>
    </linearGradient>
  </defs>
  <rect width="32" height="32" rx="4.8" fill="url(#bg)"/>
  <path d="M16,16 L30.08,16 A14.08,14.08 0 0,1 25.95606347910659,25.95606347910659 Z" fill="hsl(0, 80%, 60%)" opacity="0.85"/>
  <path d="M16,16 L25.95606347910659,25.95606347910659 A14.08,14.08 0 0,1 16,30.08 Z" fill="hsl(45, 80%, 60%)" opacity="0.85"/>
  <path d="M16,16 L16,30.08 A14.08,14.08 0 0,1 6.043936520893412,25.95606347910659 Z" fill="hsl(90, 80%, 60%)" opacity="0.85"/>
  <path d="M16,16 L6.043936520893412,25.95606347910659 A14.08,14.08 0 0,1 1.92,16 Z" fill="hsl(135, 80%, 60%)" opacity="0.85"/>
  <path d="M16,16 L1.92,16 A14.08,14.08 0 0,1 6.043936520893409,6.043936520893412 Z" fill="hsl(180, 80%, 60%)" opacity="0.85"/>
  <path d="M16,16 L6.043936520893409,6.043936520893412 A14.08,14.08 0 0,1 15.999999999999998,1.92 Z" fill="hsl(225, 80%, 60%)" opacity="0.85"/>
  <path d="M16,16 L15.999999999999998,1.92 A14.08,14.08 0 0,1 25.95606347910659,6.043936520893409 Z" fill="hsl(270, 80%, 60%)" opacity="0.85"/>
  <path d="M16,16 L25.95606347910659,6.043936520893409 A14.08,14.08 0 0,1 30.08,15.999999999999996 Z" fill="hsl(315, 80%, 60%)" opacity="0.85"/>
  <circle cx="16" cy="16" r="10.24" fill="#e94560" opacity="0.9"/>
  <circle cx="16" cy="16" r="16.08" fill="none" stroke="rgba(233,69,96,0.3)" stroke-width="2"/>
</svg>